<svg height="512pt" viewBox="-31 0 512 512" width="512pt" xmlns="http://www.w3.org/2000/svg"><path d="m165 119.988281h31.644531c-10.21875 13.246094-23.347656 24.09375-38.351562 31.59375-7.410157 3.707031-10.414063 12.714844-6.707031 20.125 3.703124 7.410157 12.714843 10.414063 20.125 6.707031 14.289062-7.144531 27.230468-16.679687 38.289062-28.089843v29.675781h-15c-8.28125 0-15 6.714844-15 15s6.71875 15 15 15h15v16c0 8.285156 6.71875 15 15 15 8.285156 0 15-6.714844 15-15v-16h15c8.285156 0 15-6.714844 15-15s-6.714844-15-15-15h-15v-29.675781c11.058594 11.410156 24.003906 20.949219 38.292969 28.09375 7.425781 3.710937 16.425781.6875 20.125-6.707031 3.703125-7.410157.699219-16.421876-6.707031-20.125-15.003907-7.503907-28.136719-18.34375-38.355469-31.585938h31.644531c8.285156 0 15-6.714844 15-15 0-8.28125-6.714844-15-15-15h-45v-15c0-8.285156-6.714844-15-15-15s-15 6.714844-15 15v15h-45c-8.285156 0-15 6.714844-15 15s6.714844 14.988281 15 14.988281zm0 0"/><path d="m165 452c8.285156 0 15-6.714844 15-15v-15h90v15c0 8.285156 6.714844 15 15 15s15-6.714844 15-15v-150c0-8.285156-6.714844-15-15-15h-120c-8.285156 0-15 6.714844-15 15v150c0 8.285156 6.714844 15 15 15zm15-60v-30h90v30zm90-90v30h-90v-30zm0 0"/><path d="m15 422c-8.285156 0-15 6.714844-15 15v60c0 8.285156 6.714844 15 15 15h420c8.285156 0 15-6.714844 15-15v-60c0-8.285156-6.714844-15-15-15h-45v-332h45c8.285156 0 15-6.714844 15-15v-60c0-8.285156-6.714844-15-15-15-20.8125 0-399.226562 0-420 0-8.285156 0-15 6.714844-15 15v60c0 8.285156 6.714844 15 15 15h45v332zm15 30h30v30h-30zm390 0v30h-30v-30zm0-392h-30v-30h30zm-60 422h-270v-452h270zm-330-422v-30h30v30zm0 0"/></svg>