<svg height="512pt" viewBox="-25 0 511 512" width="512pt" xmlns="http://www.w3.org/2000/svg"><path d="m112.164062 433h237.335938v79h-237.335938zm0 0"/><path d="m44.832031 403h372v-294h-372zm82.507813-227.144531h88.492187v-33.855469h30v33.855469h88.492188v30h-80.1875c11.597656 21.332031 34.882812 53.546875 73.199219 63.273437l-7.382813 29.078125c-33.644531-8.542969-57.714844-29.523437-74.121094-50.308593v63.496093h46.992188v30h-46.992188v28.605469h-30v-28.605469h-46.988281v-30h46.988281v-63.496093c-16.402343 20.789062-40.472656 41.765624-74.117187 50.308593l-7.382813-29.078125c38.550781-9.789062 61.761719-41.972656 73.277344-63.273437h-80.269531zm0 0"/><path d="m22.332031 79h59.832031v-79h-59.832031v24.5h-21.832031v30h21.832031zm0 0"/><path d="m112.164062 0h237.335938v79h-237.335938zm0 0"/><path d="m439.332031 24.5v-24.5h-59.832031v79h59.832031v-24.5h21.832031v-30zm0 0"/><path d="m82.164062 512v-79h-59.832031v24h-21.832031v30h21.832031v25zm0 0"/><path d="m439.332031 433h-59.832031v79h59.832031v-25h21.832031v-30h-21.832031zm0 0"/></svg>